{
  "source": "C:\\Users\\Peter\\Desktop\\stuff\\MIUN\\quantitative_research\\video_compression\\videos\\BVI-HD\\BVI-HD_CDVL_videos\\ORIG\\Grass_1920x1080_60fps.mp4",
  "output": "C:\\Users\\Peter\\Desktop\\stuff\\MIUN\\quantitative_research\\video_compression\\compressed_videos\\BVI-HD\\av1\\2.5\\Grass_1920x1080_60fps_av1.mkv",
  "codec": "av1",
  "ok": "Input #0, mov,mp4,m4a,3gp,3g2,mj2, from 'C:\\Users\\Peter\\Desktop\\stuff\\MIUN\\quantitative_research\\video_compression\\videos\\BVI-HD\\BVI-HD_CDVL_videos\\ORIG\\Grass_1920x1080_60fps.mp4':\n  Metadata:\n    major_brand     : isom\n    minor_version   : 512\n    compatible_brands: isomiso2avc1mp41\n    encoder         : Lavf54.28.101\n  Duration: 00:00:05.00, start: 0.000000, bitrate: 655968 kb/s\n  Stream #0:0[0x1](und): Video: h264 (High 4:4:4 Predictive) (avc1 / 0x31637661), yuv420p(progressive), 1920x1080, 655963 kb/s, 60 fps, 60 tbr, 60 tbn (default)\n    Metadata:\n      handler_name    : VideoHandler\n      vendor_id       : [0][0][0][0]\n[out#0/matroska @ 000001eafd3590c0] Codec AVOption b:a (set bitrate (in bits/s)) has not been used for any stream. The most likely reason is either wrong type (e.g. a video option with no video streams) or that it is a private option of some decoder which was not actually used for any stream.\nStream mapping:\n  Stream #0:0 -> #0:0 (h264 (native) -> av1 (libsvtav1))\nPress [q] to stop, [?] for help\nSvt[info]: -------------------------------------------\nSvt[info]: SVT [version]:\tSVT-AV1 Encoder Lib v3.1.0-19-g6ecfe8ec\nSvt[info]: SVT [build]  :\tGCC 15.2.0\t 64 bit\nSvt[info]: LIB Build date: Aug 17 2025 11:37:13\nSvt[info]: -------------------------------------------\nSvt[info]: Level of Parallelism: 5\nSvt[info]: Number of PPCS 93\nSvt[info]: [asm level on system : up to avx2]\nSvt[info]: [asm level selected : up to avx2]\nSvt[info]: -------------------------------------------\nSvt[info]: SVT [config]: main profile\ttier (auto)\tlevel (auto)\nSvt[info]: SVT [config]: width / height / fps numerator / fps denominator \t\t: 1920 / 1080 / 60 / 1\nSvt[info]: SVT [config]: bit-depth / color format \t\t\t\t\t: 8 / YUV420\nSvt[info]: SVT [config]: preset / tune / pred struct \t\t\t\t\t: 4 / PSNR / random access\nSvt[info]: SVT [config]: gop size / mini-gop size / key-frame type \t\t\t: 321 / 16 / key frame\nSvt[info]: SVT [config]: BRC mode / target bitrate (kbps)\t\t\t\t: VBR / 2500 \nSvt[info]: SVT [config]: AQ mode / Variance Boost \t\t\t\t\t: 2 / 0\nSvt[info]: SVT [config]: sharpness / luminance-based QP bias \t\t\t\t: 0 / 0\nSvt[info]: SVT [config]: QP scale compress strength \t\t\t\t\t: 0\nSvt[info]: -------------------------------------------\nOutput #0, matroska, to 'C:\\Users\\Peter\\Desktop\\stuff\\MIUN\\quantitative_research\\video_compression\\compressed_videos\\BVI-HD\\av1\\2.5\\Grass_1920x1080_60fps_av1.mkv':\n  Metadata:\n    major_brand     : isom\n    minor_version   : 512\n    compatible_brands: isomiso2avc1mp41\n    encoder         : Lavf62.3.100\n  Stream #0:0(und): Video: av1 (AV01 / 0x31305641), yuv420p(tv, progressive), 1920x1080, q=2-31, 2500 kb/s, 60 fps, 1k tbn (default)\n    Metadata:\n      encoder         : Lavc62.11.100 libsvtav1\n      handler_name    : VideoHandler\n      vendor_id       : [0][0][0][0]\n    Side data:\n      cpb: bitrate max/min/avg: 0/0/2500000 buffer size: 2500000 vbv_delay: N/A\nframe=    0 fps=0.0 q=0.0 size=       0KiB time=N/A bitrate=N/A speed=N/A elapsed=0:00:01.74    \nframe=    0 fps=0.0 q=0.0 size=       0KiB time=N/A bitrate=N/A speed=N/A elapsed=0:00:02.37    \nframe=    0 fps=0.0 q=0.0 size=       0KiB time=N/A bitrate=N/A speed=N/A elapsed=0:00:02.96    \nframe=    0 fps=0.0 q=0.0 size=       0KiB time=N/A bitrate=N/A speed=N/A elapsed=0:00:03.62    \nframe=    0 fps=0.0 q=0.0 size=       0KiB time=N/A bitrate=N/A speed=N/A elapsed=0:00:04.25    \nframe=    0 fps=0.0 q=0.0 size=       0KiB time=N/A bitrate=N/A speed=N/A elapsed=0:00:04.84    \nframe=    0 fps=0.0 q=0.0 size=       0KiB time=N/A bitrate=N/A speed=N/A elapsed=0:00:05.39    \nframe=    0 fps=0.0 q=0.0 size=       0KiB time=N/A bitrate=N/A speed=N/A elapsed=0:00:05.92    \nframe=    0 fps=0.0 q=0.0 size=       0KiB time=N/A bitrate=N/A speed=N/A elapsed=0:00:06.47    \nframe=    1 fps=0.1 q=23.0 size=       1KiB time=00:00:00.00 bitrate=N/A speed=   0x elapsed=0:00:07.01    \nframe=    1 fps=0.1 q=23.0 size=       1KiB time=00:00:00.00 bitrate=N/A speed=   0x elapsed=0:00:07.57    \nframe=    1 fps=0.1 q=23.0 size=       1KiB time=00:00:00.00 bitrate=N/A speed=   0x elapsed=0:00:08.09    \nframe=    1 fps=0.1 q=23.0 size=       1KiB time=00:00:00.00 bitrate=N/A speed=   0x elapsed=0:00:08.60    \nframe=    6 fps=0.7 q=52.0 size=       1KiB time=00:00:00.08 bitrate=  68.4kbits/s speed=0.00911x elapsed=0:00:09.15    \nframe=   10 fps=1.0 q=52.0 size=       1KiB time=00:00:00.15 bitrate=  38.0kbits/s speed=0.0154x elapsed=0:00:09.71    \nframe=   14 fps=1.3 q=52.0 size=       1KiB time=00:00:00.21 bitrate=  26.3kbits/s speed=0.0208x elapsed=0:00:10.40    \nframe=   16 fps=1.5 q=52.0 size=       1KiB time=00:00:00.25 bitrate=  22.8kbits/s speed=0.0228x elapsed=0:00:10.97    \nframe=   21 fps=1.8 q=49.0 size=       1KiB time=00:00:00.33 bitrate=  17.1kbits/s speed=0.029x elapsed=0:00:11.49    \nframe=   25 fps=2.1 q=45.0 size=       1KiB time=00:00:00.40 bitrate=  14.2kbits/s speed=0.0332x elapsed=0:00:12.05    \nframe=   30 fps=2.4 q=51.0 size=       1KiB time=00:00:00.48 bitrate=  11.8kbits/s speed=0.0382x elapsed=0:00:12.65    \nframe=   31 fps=2.3 q=50.0 size=       1KiB time=00:00:00.50 bitrate=  11.4kbits/s speed=0.0377x elapsed=0:00:13.24    \nframe=   36 fps=2.6 q=51.0 size=       1KiB time=00:00:00.56 bitrate=  10.1kbits/s speed=0.041x elapsed=0:00:13.83    \nframe=   39 fps=2.7 q=50.0 size=       1KiB time=00:00:00.63 bitrate=   9.0kbits/s speed=0.0438x elapsed=0:00:14.45    \nframe=   45 fps=3.0 q=48.0 size=       1KiB time=00:00:00.73 bitrate=   7.8kbits/s speed=0.0489x elapsed=0:00:15.00    \nframe=   46 fps=3.0 q=51.0 size=       1KiB time=00:00:00.75 bitrate=   7.6kbits/s speed=0.0482x elapsed=0:00:15.56    \nframe=   50 fps=3.1 q=51.0 size=       1KiB time=00:00:00.78 bitrate=   7.3kbits/s speed=0.0486x elapsed=0:00:16.10    \nframe=   54 fps=3.2 q=51.0 size=       1KiB time=00:00:00.88 bitrate=   6.4kbits/s speed=0.0528x elapsed=0:00:16.73    \nframe=   59 fps=3.4 q=50.0 size=       1KiB time=00:00:00.95 bitrate=   6.0kbits/s speed=0.0547x elapsed=0:00:17.36    \nframe=   62 fps=3.5 q=50.0 size=       1KiB time=00:00:01.01 bitrate=   5.6kbits/s speed=0.0567x elapsed=0:00:17.94    \nframe=   63 fps=3.4 q=49.0 size=       1KiB time=00:00:01.03 bitrate=   5.5kbits/s speed=0.0559x elapsed=0:00:18.49    \nframe=   67 fps=3.5 q=49.0 size=       1KiB time=00:00:01.10 bitrate=   5.2kbits/s speed=0.0577x elapsed=0:00:19.07    \nframe=   70 fps=3.6 q=50.0 size=       1KiB time=00:00:01.15 bitrate=   5.0kbits/s speed=0.0586x elapsed=0:00:19.62    \nframe=   75 fps=3.7 q=49.0 size=       1KiB time=00:00:01.21 bitrate=   4.7kbits/s speed=0.0603x elapsed=0:00:20.17    \nframe=   78 fps=3.8 q=50.0 size=       1KiB time=00:00:01.28 bitrate=   4.4kbits/s speed=0.0619x elapsed=0:00:20.73    \nframe=   81 fps=3.8 q=36.0 size=       1KiB time=00:00:01.31 bitrate=   4.3kbits/s speed=0.0618x elapsed=0:00:21.28    \nframe=   86 fps=3.9 q=50.0 size=       1KiB time=00:00:01.41 bitrate=   4.0kbits/s speed=0.0646x elapsed=0:00:21.92    \nframe=   90 fps=4.0 q=50.0 size=       1KiB time=00:00:01.48 bitrate=   3.8kbits/s speed=0.066x elapsed=0:00:22.49    \nframe=   94 fps=4.1 q=50.0 size=       1KiB time=00:00:01.55 bitrate=   3.7kbits/s speed=0.0673x elapsed=0:00:23.02    \nframe=   95 fps=4.0 q=49.0 size=       1KiB time=00:00:01.56 bitrate=   3.6kbits/s speed=0.0665x elapsed=0:00:23.54    \nframe=  102 fps=4.2 q=50.0 size=       1KiB time=00:00:01.66 bitrate=   3.4kbits/s speed=0.0692x elapsed=0:00:24.09    \nframe=  106 fps=4.3 q=50.0 size=       1KiB time=00:00:01.73 bitrate=   3.3kbits/s speed=0.0701x elapsed=0:00:24.73    \nframe=  110 fps=4.3 q=50.0 size=       1KiB time=00:00:01.81 bitrate=   3.1kbits/s speed=0.0715x elapsed=0:00:25.40    \nframe=  111 fps=4.3 q=49.0 size=       1KiB time=00:00:01.83 bitrate=   3.1kbits/s speed=0.0707x elapsed=0:00:25.94    \nframe=  118 fps=4.5 q=50.0 size=       1KiB time=00:00:01.93 bitrate=   2.9kbits/s speed=0.073x elapsed=0:00:26.47    \nframe=  122 fps=4.5 q=50.0 size=       1KiB time=00:00:01.98 bitrate=   2.9kbits/s speed=0.0732x elapsed=0:00:27.08    \nframe=  125 fps=4.5 q=47.0 size=       1KiB time=00:00:02.06 bitrate=   2.8kbits/s speed=0.0745x elapsed=0:00:27.73    \nframe=  126 fps=4.5 q=50.0 size=       1KiB time=00:00:02.08 bitrate=   2.7kbits/s speed=0.0737x elapsed=0:00:28.25    \nframe=  130 fps=4.5 q=50.0 size=       1KiB time=00:00:02.13 bitrate=   2.7kbits/s speed=0.074x elapsed=0:00:28.82    \nframe=  134 fps=4.6 q=50.0 size=       1KiB time=00:00:02.21 bitrate=   2.6kbits/s speed=0.0754x elapsed=0:00:29.39    \nframe=  141 fps=4.7 q=47.0 size=       1KiB time=00:00:02.33 bitrate=   2.4kbits/s speed=0.0778x elapsed=0:00:29.98    \nframe=  142 fps=4.6 q=50.0 size=       1KiB time=00:00:02.35 bitrate=   2.4kbits/s speed=0.0769x elapsed=0:00:30.56    \nframe=  143 fps=4.6 q=49.0 size=       1KiB time=00:00:02.36 bitrate=   2.4kbits/s speed=0.0761x elapsed=0:00:31.10    \nframe=  147 fps=4.6 q=49.0 size=       1KiB time=00:00:02.43 bitrate=   2.3kbits/s speed=0.0769x elapsed=0:00:31.63    \nframe=  151 fps=4.7 q=49.0 size=       1KiB time=00:00:02.50 bitrate=   2.3kbits/s speed=0.0776x elapsed=0:00:32.19    \nframe=  157 fps=4.8 q=47.0 size=       1KiB time=00:00:02.60 bitrate=   2.2kbits/s speed=0.0793x elapsed=0:00:32.79    \nframe=  159 fps=4.8 q=49.0 size=       1KiB time=00:00:02.63 bitrate=   2.2kbits/s speed=0.079x elapsed=0:00:33.33    \nframe=  165 fps=4.9 q=47.0 size=       1KiB time=00:00:02.71 bitrate=   2.1kbits/s speed=0.0802x elapsed=0:00:33.86    \nframe=  169 fps=4.9 q=43.0 size=       1KiB time=00:00:02.78 bitrate=   2.0kbits/s speed=0.0808x elapsed=0:00:34.43    \nframe=  173 fps=4.9 q=47.0 size=       1KiB time=00:00:02.86 bitrate=   2.0kbits/s speed=0.082x elapsed=0:00:34.96    \nframe=  174 fps=4.9 q=50.0 size=       1KiB time=00:00:02.88 bitrate=   2.0kbits/s speed=0.0812x elapsed=0:00:35.51    \nframe=  179 fps=5.0 q=49.0 size=       1KiB time=00:00:02.96 bitrate=   1.9kbits/s speed=0.0823x elapsed=0:00:36.04    \nframe=  183 fps=5.0 q=49.0 size=       1KiB time=00:00:03.03 bitrate=   1.9kbits/s speed=0.0829x elapsed=0:00:36.58    \nframe=  189 fps=5.1 q=47.0 size=       1KiB time=00:00:03.13 bitrate=   1.8kbits/s speed=0.0843x elapsed=0:00:37.14    \nframe=  191 fps=5.1 q=49.0 size=       1KiB time=00:00:03.16 bitrate=   1.8kbits/s speed=0.0839x elapsed=0:00:37.73    \nframe=  195 fps=5.1 q=49.0 size=       1KiB time=00:00:03.23 bitrate=   1.8kbits/s speed=0.0845x elapsed=0:00:38.25    \nframe=  199 fps=5.1 q=49.0 size=       1KiB time=00:00:03.30 bitrate=   1.7kbits/s speed=0.085x elapsed=0:00:38.80    \nframe=  209 fps=5.3 q=35.0 size=       1KiB time=00:00:03.46 bitrate=   1.6kbits/s speed=0.0881x elapsed=0:00:39.34    \nframe=  209 fps=5.2 q=35.0 size=       1KiB time=00:00:03.46 bitrate=   1.6kbits/s speed=0.087x elapsed=0:00:39.86    \nframe=  213 fps=5.3 q=46.0 size=       1KiB time=00:00:03.53 bitrate=   1.6kbits/s speed=0.0874x elapsed=0:00:40.43    \nframe=  217 fps=5.3 q=43.0 size=       1KiB time=00:00:03.60 bitrate=   1.6kbits/s speed=0.0879x elapsed=0:00:40.94    \nframe=  225 fps=5.4 q=35.0 size=       1KiB time=00:00:03.73 bitrate=   1.5kbits/s speed=0.09x elapsed=0:00:41.47    \nframe=  225 fps=5.4 q=35.0 size=       1KiB time=00:00:03.73 bitrate=   1.5kbits/s speed=0.0889x elapsed=0:00:42.01    \nframe=  229 fps=5.4 q=46.0 size=       1KiB time=00:00:03.76 bitrate=   1.5kbits/s speed=0.0885x elapsed=0:00:42.55    \nframe=  233 fps=5.4 q=42.0 size=       1KiB time=00:00:03.86 bitrate=   1.5kbits/s speed=0.0896x elapsed=0:00:43.14    \nframe=  241 fps=5.5 q=34.0 size=       1KiB time=00:00:04.00 bitrate=   1.4kbits/s speed=0.0915x elapsed=0:00:43.70    \nframe=  241 fps=5.4 q=34.0 size=       1KiB time=00:00:04.00 bitrate=   1.4kbits/s speed=0.0904x elapsed=0:00:44.25    \nframe=  247 fps=5.5 q=48.0 size=       1KiB time=00:00:04.10 bitrate=   1.4kbits/s speed=0.0915x elapsed=0:00:44.80    \nframe=  253 fps=5.6 q=46.0 size=       1KiB time=00:00:04.20 bitrate=   1.4kbits/s speed=0.0925x elapsed=0:00:45.38    \nframe=  257 fps=5.6 q=34.0 size=       1KiB time=00:00:04.26 bitrate=   1.3kbits/s speed=0.0929x elapsed=0:00:45.93    \nframe=  257 fps=5.5 q=34.0 size=       1KiB time=00:00:04.26 bitrate=   1.3kbits/s speed=0.0918x elapsed=0:00:46.46    \nframe=  257 fps=5.5 q=34.0 size=       1KiB time=00:00:04.26 bitrate=   1.3kbits/s speed=0.0908x elapsed=0:00:47.00    \nframe=  265 fps=5.6 q=41.0 size=       1KiB time=00:00:04.40 bitrate=   1.3kbits/s speed=0.0926x elapsed=0:00:47.53    \nframe=  273 fps=5.7 q=33.0 size=       1KiB time=00:00:04.53 bitrate=   1.3kbits/s speed=0.0942x elapsed=0:00:48.12    \nframe=  273 fps=5.6 q=33.0 size=       1KiB time=00:00:04.53 bitrate=   1.3kbits/s speed=0.0931x elapsed=0:00:48.70    \nframe=  279 fps=5.7 q=46.0 size=       1KiB time=00:00:04.60 bitrate=   1.2kbits/s speed=0.0933x elapsed=0:00:49.30    \nframe=  281 fps=5.6 q=41.0 size=       1KiB time=00:00:04.66 bitrate=   1.2kbits/s speed=0.0936x elapsed=0:00:49.85    \n[out#0/matroska @ 000001eafd3590c0] video:1535KiB audio:0KiB subtitle:0KiB other streams:0KiB global headers:0KiB muxing overhead: 0.134342%\nframe=  300 fps=6.0 q=48.0 Lsize=    1537KiB time=00:00:04.98 bitrate=2526.0kbits/s speed=0.0991x elapsed=0:00:50.28    \n",
  "seconds": 51.13794255256653,
  "probe_out": {}
}